<?xml version="1.0" encoding="UTF-8" standalone="no"?>
<!-- Created with Inkscape (http://www.inkscape.org/) -->

<svg
   version="1.1"
   id="svg824"
   width="250"
   height="150"
   viewBox="0 0 250 150"
   sodipodi:docname="animEats.svg"
   inkscape:version="1.1.1 (3bf5ae0d25, 2021-09-20)"
   xmlns:inkscape="http://www.inkscape.org/namespaces/inkscape"
   xmlns:sodipodi="http://sodipodi.sourceforge.net/DTD/sodipodi-0.dtd"
   xmlns="http://www.w3.org/2000/svg"
   xmlns:svg="http://www.w3.org/2000/svg">
  <defs
     id="defs828" />
  <sodipodi:namedview
     id="namedview826"
     pagecolor="#ffffff"
     bordercolor="#666666"
     borderopacity="1.0"
     inkscape:pageshadow="2"
     inkscape:pageopacity="0.0"
     inkscape:pagecheckerboard="0"
     showgrid="false"
     inkscape:zoom="3.8661053"
     inkscape:cx="87.685144"
     inkscape:cy="78.114789"
     inkscape:window-width="2256"
     inkscape:window-height="1398"
     inkscape:window-x="-11"
     inkscape:window-y="-11"
     inkscape:window-maximized="1"
     inkscape:current-layer="g830" />
  <g
     inkscape:groupmode="layer"
     inkscape:label="Image"
     id="g830">
    <path
       style="fill:#000000"
       d="m 37.15595,97.322425 c -0.825,-0.55925 -2.88535,-1.02372 -4.578555,-1.03214 -3.488661,-0.0174 -11.887033,-5.14824 -13.568043,-8.28924 -2.236696,-4.1793 1.340844,-20.78192 5.238091,-24.308884 1.049679,-0.94994 1.908507,-2.29204 1.908507,-2.98244 0,-2.51285 5.574288,-9.68064 9.687147,-12.45638 2.319262,-1.56525 6.715763,-3.63363 9.770002,-4.59639 5.49094,-1.73087 5.586263,-1.72601 8.507514,0.43377 1.624893,1.20133 3.39368,2.18424 3.930637,2.18424 1.596965,0 10.193426,8.22494 12.542052,12 3.342524,5.37261 5.420016,11.745024 6.59306,20.223264 1.180346,8.53102 0.877313,9.62494 -3.934942,14.20482 -2.125847,2.02319 -4.701994,3.20671 -8.336056,3.82971 -8.32725,1.42757 -26.0737,1.9324 -27.759414,0.78967 z m 34.831367,-7.60981 3.331367,-3.26705 -1.125013,-7.8353 c -1.097634,-7.64461 -1.531801,-9.10437 -4.858514,-16.335304 -1.718854,-3.73609 -10.40539,-13 -12.18978,-13 -0.588727,0 -2.340289,-0.93886 -3.892361,-2.08635 -2.731639,-2.01959 -2.977801,-2.03345 -7.691925,-0.43296 -2.678487,0.90937 -5.102889,2.00376 -5.387559,2.43198 -0.28467,0.42822 -1.835668,1.41055 -3.446663,2.18296 -2.768919,1.32758 -5.293362,4.56614 -7.536812,9.66882 -0.547573,1.24544 -1.890895,3.49544 -2.985161,5 -2.241398,3.081804 -5.048946,13.012664 -5.048946,17.859144 0,2.61144 0.785351,3.78132 4.25,6.33089 2.661863,1.95881 5.181468,3.01876 6.742695,2.83651 2.172741,-0.25364 2.583254,-0.93277 3.198226,-5.29099 0.539013,-3.8199 1.439958,-5.65836 3.817261,-7.78947 2.940388,-2.63588 3.559797,-2.77353 11.249145,-2.5 7.866211,0.27983 8.194909,0.38946 9.862438,3.28947 0.948762,1.65 1.872444,5.025 2.052628,7.5 0.180184,2.475 0.714921,4.78235 1.188305,5.12744 1.576719,1.14939 5.102086,-0.38624 8.470669,-3.68979 z M 46.386529,68.052795 c -0.879429,-1.05964 -0.312983,-1.323284 2.843172,-1.323284 2.237496,0 3.796709,0.442134 3.606706,1.022734 -0.514098,1.57093 -5.213807,1.78993 -6.449878,0.30055 z m -6.730579,-0.77783 c -1.062553,-1.719244 0.479479,-3.096734 1.947904,-1.740044 1.373009,1.26853 1.132467,2.740044 -0.447904,2.740044 -0.485081,0 -1.160081,-0.45 -1.5,-1 z m 16.946149,-0.0871 c -1.030521,-1.667424 1.287209,-3.579514 2.666719,-2.200004 1.153924,1.15393 0.431721,3.287134 -1.112868,3.287134 -0.485081,0 -1.184314,-0.48921 -1.553851,-1.08713 z m 4.540196,23.33713 c -0.02017,-2.58526 -1.122173,-6.25 -1.879402,-6.25 -0.362887,0 -0.488137,1.8 -0.278333,4 0.37002,3.88003 2.185223,5.77285 2.157735,2.25 z m -1.986345,-8.25 c 0,-0.55 -0.476558,-1 -1.059017,-1 -0.582459,0 -0.780902,0.45 -0.440983,1 0.339919,0.55 0.816476,1 1.059017,1 0.242541,0 0.440983,-0.45 0.440983,-1 z m 166.36483,14.50839 c -0.73516,-1.9158 1.07474,-3.46937 4.06944,-3.49307 2.43069,-0.0192 10.56572,-3.90227 10.56572,-5.04325 0,-0.46724 -2.0473,-1.15653 -4.54954,-1.53177 -4.38133,-0.65702 -7.45046,-2.53007 -7.45046,-4.54691 0,-3.45634 7.72183,-9.89339 11.86803,-9.89339 3.27084,0 2.53868,2.39801 -1.55178,5.08246 -5.05577,3.31796 -5.16413,4.5985 -0.45646,5.39385 2.17915,0.36817 4.71737,1.50397 5.64049,2.524 2.51672,2.78095 0.15998,6.93418 -5.50028,9.69301 -6.6135,3.22344 -11.80835,3.96969 -12.63516,1.81507 z m -112.88519,-0.75839 c -0.80934,-2.21096 -3.4793,-17.17415 -3.47948,-19.5 -1.7e-4,-2.22611 2.33134,-3.14066 3.43873,-1.34886 0.83017,1.34324 3.56073,16.18018 3.56093,19.34886 1.8e-4,2.84339 -2.61975,3.95978 -3.52018,1.5 z m 69.72035,0.05 c -1.95348,-1.95347 -1.39068,-5.10776 1.81254,-10.15872 3.78687,-5.97126 12.98746,-10.6783 12.98746,-6.6444 0,0.48337 -2.06937,2.36496 -4.5986,4.18132 -5.00521,3.59447 -8.58926,8.8218 -6.04855,8.8218 0.77231,0 3.53177,-2.49034 6.13213,-5.53409 5.37173,-6.28768 6.79859,-6.14465 7.97038,0.79891 1.16991,6.93238 1.11554,9.01553 -0.24755,9.48496 -0.78333,0.26977 -1.92458,-1.16491 -2.89809,-3.64323 l -1.60591,-4.08825 -4.32956,3.99085 c -4.44546,4.09768 -7.06925,4.89585 -9.17425,2.79085 z m -97.713131,-2.17971 c -2.021372,-3.085 -3.91887,-14.58828 -2.620541,-15.8866 1.588441,-1.58845 3.090986,0.14712 3.762393,4.34586 0.672667,4.20663 2.371289,6.39587 2.371289,3.0562 0,-2.87485 4.785352,-8.13575 7.400332,-8.13575 2.639478,0 5.500758,2.48587 8.561408,7.4381 2.15436,3.48584 2.19289,6.5619 0.0822,6.5619 -0.56036,0 -2.21675,-1.9125 -3.68087,-4.25 -4.493043,-7.17324 -6.322181,-6.94693 -8.32706,1.03024 -1.142331,4.5452 -3.452603,8.21976 -5.167933,8.21976 -0.452077,0 -1.52362,-1.07087 -2.381206,-2.37971 z m 37.663251,-1.30763 c -3.57605,-14.19182 -3.65879,-16.31266 -0.63642,-16.31266 0.80332,0 1.67435,1.48548 2.05228,3.5 0.80397,4.28556 1.54801,4.39866 3.27471,0.49777 1.458,-3.29384 5.45801,-4.92648 8.06409,-3.29144 0.87737,0.55047 2.02716,2.30423 2.55509,3.89726 0.52793,1.59303 1.05293,3.04641 1.16667,3.22975 0.11373,0.18333 1.17083,-0.6307 2.34909,-1.80896 1.47631,-1.47631 3.11142,-2.04625 5.25973,-1.83334 2.64388,0.26203 3.58432,1.16974 6.19103,5.9756 1.69049,3.11665 2.80052,5.93975 2.46674,6.27354 -1.22709,1.22715 -3.63461,-0.63547 -5.79901,-4.48649 -3.39804,-6.04601 -6.16787,-5.03129 -7.95295,2.91355 -0.52996,2.35867 -1.23924,4.56417 -1.57618,4.9011 -1.38045,1.38046 -3.68673,-2.7703 -4.76709,-8.57965 -1.11183,-5.97853 -2.71003,-7.75791 -4.44566,-4.94961 -0.42118,0.6815 -1.5057,3.944 -2.41004,7.25 -2.0092,7.34508 -4.36355,8.4928 -5.79208,2.82358 z m 86.59902,1.16376 c -3.14419,-3.1442 -4.81447,-9.43648 -5.49611,-20.70504 -0.45715,-7.557384 -0.30249,-8.815174 1.15261,-9.373544 2.48477,-0.9535 3.04208,0.12169 3.59436,6.934394 l 0.5,6.16777 4.25,0.3075 c 3.43587,0.24859 4.25,0.67961 4.25,2.25 0,1.59959 -0.70613,1.9425 -4,1.9425 -3.79104,0 -4,0.15909 -4,3.04546 0,1.93758 0.93528,3.98073 2.571,5.61645 2.18121,2.18121 3.15753,2.47721 6.43964,1.95238 4.23127,-0.6766 5.91206,0.569 3.95301,2.92952 -0.74713,0.90023 -3.01868,1.45619 -5.94973,1.45619 -3.73576,0 -5.27636,-0.53516 -7.26478,-2.52358 z m -45.09018,-4.53003 c -3.32175,-2.6129 -4.41523,-6.99058 -4.82819,-19.32943 -0.36041,-10.768734 -0.66208,-10.152174 6.16923,-12.608994 10.44972,-3.75816 13.79409,-1.16816 4.75,3.67856 l -5.25,2.81347 -0.2999,5.750004 c -0.16495,3.1625 -0.0645,5.75 0.22324,5.75 0.28774,0 2.51244,-0.96647 4.94379,-2.14771 4.42953,-2.15203 8.16223,-1.95079 7.38664,0.39824 -0.2269,0.68721 -2.85182,2.61567 -5.83316,4.28547 -5.69357,3.18889 -6.9193,5.80068 -3.68092,7.8434 1.3169,0.83068 2.96179,0.66331 6.76839,-0.68867 5.22027,-1.85408 6.99192,-1.62168 6.99192,0.91718 0,1.87885 -7.48842,5.34104 -11.61514,5.37013 -1.71333,0.0121 -4.28998,-0.90216 -5.7259,-2.03165 z M 109.15594,66.274991 c 0,-1.50615 0.52215,-2.04609 1.75,-1.80963 0.9625,0.18536 1.75,0.9997 1.75,1.80963 0,0.809944 -0.7875,1.624274 -1.75,1.809634 -1.22785,0.23646 -1.75,-0.30348 -1.75,-1.809634 z"
       id="path914" />
    <path
       style="fill:#f590a2;stroke:none;stroke-width:0.0418941"
       d="m 59.39659,70.793132 c -0.842245,0.3976 -2.65137,0.42591 -2.789332,1.58565 -0.192596,0.10438 -0.205259,0.29256 -0.259319,0.4757 -0.156025,0.52838 -0.08156,1.09378 0.17834,1.58565 0.0963,0.18235 0.247365,0.47129 0.479455,0.51533 0.0762,0.23654 0.387673,0.41338 0.619852,0.5306 0.572831,0.28922 1.209551,0.43712 1.857828,0.5084 1.424108,0.15654 3.100895,0.0752 4.275824,-0.74692 1.724205,-1.20636 0.955014,-3.36126 -0.820639,-4.09597 -0.697776,-0.28871 -1.596207,-0.39031 -2.358137,-0.3909 -0.333347,-2.8e-4 -0.887096,0.12891 -1.183872,0.0325 m -25.458186,1.50636 c -0.271583,0.35559 -0.746788,0.71541 -0.708401,1.18924 -0.238776,0.11619 -0.121358,0.70803 -0.09103,0.91175 0.142743,0.95845 0.985962,1.62077 1.950584,1.96664 1.459308,0.52327 3.717559,0.4265 5.047362,-0.34246 0.290843,-0.16816 0.596076,-0.36371 0.820329,-0.60231 0.164084,-0.17462 0.241255,-0.43807 0.419374,-0.58582 0.01762,-0.49202 0.534976,-1.53728 -0.132825,-1.90278 0.0816,-0.14611 -0.07522,-0.27102 -0.177101,-0.39641 -0.300096,-0.36942 -0.728546,-0.62348 -1.195427,-0.83246 -0.710394,-0.31805 -1.981533,-0.41259 -2.567957,-0.31713 -0.453377,0.0738 -0.803726,0.0152 -1.151152,0.11892 -0.238687,0.0712 -0.522801,-0.007 -0.752677,0.0793 -0.385193,0.1437 -0.734436,0.28118 -1.106878,0.47569 -0.174754,0.0913 -0.232488,0.26509 -0.354201,0.23785 m 1.374078,0.42266 c 0.211724,-0.0573 0.280705,0.14627 0.235145,0.29088 -0.07797,0.2478 -0.456697,0.84432 -0.767951,0.88317 -0.196449,0.0245 -0.253829,-0.15313 -0.194766,-0.28855 0.0913,-0.2093 0.480429,-0.81863 0.727572,-0.8855 m 23.418033,0.008 c 0.210174,0 0.184008,0.2455 0.131453,0.36204 -0.09957,0.22096 -0.470733,0.83568 -0.788849,0.80622 -0.190073,-0.0176 -0.178296,-0.21564 -0.117374,-0.33052 0.100151,-0.18882 0.517753,-0.83774 0.77477,-0.83774 m -21.2041,0.22817 c 0.199636,-0.0616 0.328123,0.0895 0.259275,0.25283 -0.107235,0.25446 -0.439741,0.76651 -0.747807,0.84583 -0.186221,0.0479 -0.283847,-0.10905 -0.223633,-0.25129 0.09249,-0.21858 0.458424,-0.76908 0.712165,-0.84737 m 23.375971,0 c 0.235278,-0.0718 0.288541,0.13764 0.217126,0.29244 -0.109936,0.23816 -0.444345,0.76051 -0.748825,0.81296 -0.191402,0.0329 -0.279642,-0.11322 -0.207119,-0.25803 0.111396,-0.22258 0.474098,-0.76662 0.738818,-0.84737 m -21.296768,0.60957 c 0.240635,-0.10049 0.409323,-0.37021 0.708225,-0.34397 0.256751,0.0225 0.349242,0.2652 0.281146,0.46289 -0.08461,0.24585 -0.50965,0.67335 -0.76866,0.78513 -0.499423,0.21553 -1.027005,-0.65729 -0.900024,-1.02238 0.141813,-0.40779 0.578543,-0.1617 0.679313,0.11833 m 23.377256,0 c 0.148853,-0.0935 0.276985,-0.22441 0.442751,-0.29442 0.298015,-0.12582 0.637915,0.0641 0.549542,0.3737 -0.07412,0.25961 -0.482111,0.66343 -0.728369,0.80856 -0.539094,0.31761 -1.076682,-0.61384 -0.953111,-1.00617 0.134154,-0.42591 0.561763,-0.12059 0.689187,0.11833 m -27.05209,3.01273 0.04427,0.0396 z"
       id="path1068" />
    <path
       style="fill:#000000;stroke-width:0.0418941"
       id="path1048"
       d="" />
  </g>
</svg>
